<svg width="122" height="34" viewBox="0 0 122 34" fill="none" xmlns="http://www.w3.org/2000/svg">
<path d="M4.58 26V21.73H10.39C11.4633 21.73 12.3033 21.415 12.91 20.785C13.5167 20.155 13.82 19.385 13.82 18.475C13.82 17.845 13.68 17.285 13.4 16.795C13.12 16.305 12.7233 15.92 12.21 15.64C11.72 15.36 11.1133 15.22 10.39 15.22H4.58V11.055H9.935C10.845 11.055 11.58 10.8333 12.14 10.39C12.7 9.92333 12.98 9.22333 12.98 8.29C12.98 7.38 12.7 6.70333 12.14 6.26C11.58 5.79333 10.845 5.56 9.935 5.56H4.58V1.29H10.985C12.5717 1.29 13.9133 1.58167 15.01 2.165C16.13 2.74833 16.9817 3.53 17.565 4.51C18.1483 5.49 18.44 6.575 18.44 7.765C18.44 9.28167 17.95 10.565 16.97 11.615C15.99 12.665 14.5433 13.3883 12.63 13.785L12.77 11.93C14.8467 12.3267 16.445 13.1317 17.565 14.345C18.7083 15.5583 19.28 17.0517 19.28 18.825C19.28 20.1783 18.9417 21.4033 18.265 22.5C17.6117 23.5733 16.655 24.425 15.395 25.055C14.1583 25.685 12.665 26 10.915 26H4.58ZM0.38 26V1.29H5.805V26H0.38ZM29.4169 26.35C27.8535 26.35 26.4535 25.965 25.2169 25.195C24.0035 24.425 23.0352 23.375 22.3119 22.045C21.6119 20.715 21.2619 19.1983 21.2619 17.495C21.2619 15.7917 21.6119 14.275 22.3119 12.945C23.0352 11.615 24.0035 10.565 25.2169 9.795C26.4535 9.025 27.8535 8.64 29.4169 8.64C30.5602 8.64 31.5869 8.86167 32.4969 9.305C33.4302 9.74833 34.1885 10.3667 34.7719 11.16C35.3552 11.93 35.6819 12.8167 35.7519 13.82V21.17C35.6819 22.1733 35.3552 23.0717 34.7719 23.865C34.2119 24.635 33.4652 25.2417 32.5319 25.685C31.5985 26.1283 30.5602 26.35 29.4169 26.35ZM30.5019 21.52C31.6452 21.52 32.5669 21.1467 33.2669 20.4C33.9669 19.63 34.3169 18.6617 34.3169 17.495C34.3169 16.7017 34.1535 16.0017 33.8269 15.395C33.5235 14.7883 33.0802 14.3217 32.4969 13.995C31.9369 13.645 31.2835 13.47 30.5369 13.47C29.7902 13.47 29.1252 13.645 28.5419 13.995C27.9819 14.3217 27.5269 14.7883 27.1769 15.395C26.8502 16.0017 26.6869 16.7017 26.6869 17.495C26.6869 18.265 26.8502 18.9533 27.1769 19.56C27.5035 20.1667 27.9585 20.645 28.5419 20.995C29.1252 21.345 29.7785 21.52 30.5019 21.52ZM34.1069 26V21.415L34.9119 17.285L34.1069 13.155V8.99H39.3569V26H34.1069ZM54.0123 26L48.0623 17.18L53.9773 8.99H59.9623L52.8223 18.195L52.9973 15.99L60.3123 26H54.0123ZM43.1273 26V0.59H48.4823V26H43.1273Z" fill="#492D13"/>
<path d="M62.7238 26V1.29H68.2188V26H62.7238ZM66.9238 26V21.24H80.4688V26H66.9238ZM66.9238 15.675V11.09H79.2438V15.675H66.9238ZM66.9238 6.015V1.29H80.2938V6.015H66.9238ZM83.767 26V8.99H89.122V26H83.767ZM89.122 16.655L86.882 14.905C87.3253 12.9217 88.072 11.3817 89.122 10.285C90.172 9.18833 91.6303 8.64 93.497 8.64C94.3136 8.64 95.0253 8.76833 95.632 9.025C96.262 9.25833 96.8103 9.63167 97.277 10.145L94.092 14.17C93.8586 13.9133 93.567 13.715 93.217 13.575C92.867 13.435 92.4703 13.365 92.027 13.365C91.1403 13.365 90.4286 13.645 89.892 14.205C89.3786 14.7417 89.122 15.5583 89.122 16.655ZM103.817 26.07L96.8168 8.99H102.592L107.037 22.535H104.902L109.452 8.99H115.227L107.947 26.07H103.817ZM99.4418 33.175L104.552 22.15L107.947 26.07L104.937 33.175H99.4418ZM118.23 26.385C117.32 26.385 116.562 26.07 115.955 25.44C115.349 24.81 115.045 24.0517 115.045 23.165C115.045 22.2317 115.349 21.4617 115.955 20.855C116.562 20.225 117.32 19.91 118.23 19.91C119.164 19.91 119.922 20.225 120.505 20.855C121.112 21.4617 121.415 22.2317 121.415 23.165C121.415 24.0517 121.112 24.81 120.505 25.44C119.922 26.07 119.164 26.385 118.23 26.385Z" fill="#F29C52"/>
</svg>
