<svg width="274" height="319" viewBox="0 0 274 319" fill="none" xmlns="http://www.w3.org/2000/svg">
<path d="M134.658 23.724C122.086 22.725 111.886 23.1715 99.7121 27.0373C96.0479 28.1797 92.7888 22.9245 96.4376 20.7901C107.855 14.0893 123.313 10.8027 136.395 13.8704C142.721 15.3283 140.999 24.2333 134.658 23.724Z" fill="#F29C52" fill-opacity="0.15"/>
<path d="M181.729 41.6508C177.667 38.5753 173.642 35.5063 169.168 33.043C164.969 30.7425 160.425 29.1041 156.289 26.6625C154.151 25.4102 154.695 22.5382 157.103 22.0494C168.195 19.7815 181.061 25.5888 189.217 32.8492C194.851 37.8 187.669 46.1609 181.729 41.6508Z" fill="#F29C52" fill-opacity="0.15"/>
<path d="M214.58 86.4849C210.337 79.0395 206.828 71.5332 200.905 65.1996C196.361 60.3267 202.516 52.3936 207.82 57.058C214.994 63.4219 222.267 71.5919 225.353 80.8501C227.445 87.117 218.15 92.7841 214.58 86.4849Z" fill="#F29C52" fill-opacity="0.15"/>
<path d="M227.503 135.53C227.472 131.605 228.075 127.754 228.155 123.849C228.228 119.98 227.926 116.084 227.845 112.226C227.753 108.215 232.759 107.233 234.464 110.73C238.11 118.108 240.089 127.818 238.872 136.013C237.926 142.239 227.565 142.086 227.503 135.53Z" fill="#F29C52" fill-opacity="0.15"/>
<path d="M213.501 181.046C207.421 184.883 202.021 176.663 207.239 172.103C212.513 167.439 216.392 162.491 219.385 156.094C221.572 151.456 228.851 153.767 227.96 158.823C226.435 167.687 221.118 176.263 213.501 181.046Z" fill="#F29C52" fill-opacity="0.15"/>
<path d="M189.207 194.952C184.05 196.363 178.616 196.965 173.324 197.63C167.958 198.282 162.496 199.26 157.08 198.686C150.728 198.022 149.995 188.152 155.958 186.273C161.118 184.633 166.658 184.507 172.022 184.082C177.386 183.658 182.8 183.167 188.175 183.544C193.999 183.962 194.723 193.451 189.207 194.952Z" fill="#F29C52" fill-opacity="0.15"/>
<path d="M124.493 196.174C118.812 196.885 113.665 197.157 107.96 196.493C101.547 195.743 101.856 185.143 108.425 185.007C114.193 184.883 119.275 185.627 124.869 186.918C129.953 188.081 129.822 195.516 124.493 196.174Z" fill="#F29C52" fill-opacity="0.15"/>
<path d="M69.713 201.964C64.4187 204.151 59.6043 207.716 55.2262 211.396C49.2332 216.466 40.0601 206.553 45.8837 201.149C52.0242 195.458 58.9965 192.388 67.3628 191.77C73.4172 191.315 75.218 199.662 69.713 201.964Z" fill="#F29C52" fill-opacity="0.15"/>
<path d="M35.0769 230.942C32.1972 237.778 30.3528 243.922 29.2489 251.261C28.1124 258.786 16.0208 258.518 15.6811 250.734C15.2934 241.495 18.7349 231.256 25.646 224.865C30.1954 220.644 37.7114 224.633 35.0769 230.942Z" fill="#F29C52" fill-opacity="0.15"/>
<path d="M33.3739 307.697C22.8337 301.653 18.0452 288.67 21.9489 277.105C23.5525 272.327 31.4415 273.984 31.5811 278.803C31.7993 286.414 34.5505 291.96 40.3321 296.937C45.6795 301.571 39.9369 311.48 33.3739 307.697Z" fill="#F29C52" fill-opacity="0.15"/>
<path d="M82.6458 342.261C74.3767 339.09 66.2875 334.467 58.8843 329.623C53.4588 326.079 59.332 318.02 64.8484 320.401C72.9418 323.921 81.1503 328.298 88.304 333.479C93.4385 337.162 87.9191 344.294 82.6458 342.261Z" fill="#F29C52" fill-opacity="0.15"/>
</svg>
