<svg width="19" height="17" viewBox="0 0 19 17" fill="none" xmlns="http://www.w3.org/2000/svg">
<path d="M17.753 4.051H4.502L3.935 2.14C3.893 1.986 3.816 1.86 3.704 1.762C3.606 1.65 3.487 1.58 3.347 1.552L1.352 1.006C1.268 0.991999 1.205 0.984999 1.163 0.984999C0.981 0.984999 0.813 1.048 0.659 1.174C0.505 1.286 0.4 1.433 0.344 1.615C0.274 1.867 0.302 2.084 0.428 2.266C0.582 2.49 0.757 2.63 0.953 2.686L2.423 3.085L5.426 13.921C5.216 14.033 5.048 14.194 4.922 14.404C4.796 14.6 4.733 14.817 4.733 15.055C4.733 15.405 4.852 15.706 5.09 15.958C5.342 16.21 5.643 16.336 5.993 16.336C6.343 16.336 6.637 16.21 6.875 15.958C7.127 15.706 7.253 15.405 7.253 15.055V15.013H13.385V15.055C13.385 15.405 13.504 15.706 13.742 15.958C13.994 16.21 14.295 16.336 14.645 16.336C14.995 16.336 15.289 16.21 15.527 15.958C15.779 15.706 15.905 15.412 15.905 15.076C15.905 14.74 15.8 14.453 15.59 14.215C15.38 13.977 15.114 13.837 14.792 13.795C14.162 13.683 12.685 13.557 10.361 13.417L7.064 13.249L6.875 12.451H14.603C14.799 12.451 14.974 12.395 15.128 12.283C15.296 12.157 15.408 11.996 15.464 11.8L17.144 5.899H17.753C18.019 5.899 18.243 5.815 18.425 5.647C18.607 5.465 18.698 5.248 18.698 4.996C18.698 4.73 18.607 4.506 18.425 4.324C18.243 4.142 18.019 4.051 17.753 4.051ZM7.904 10.477H6.434C6.378 10.477 6.343 10.449 6.329 10.393L5.09 6.109C5.09 6.081 5.097 6.06 5.111 6.046C5.125 6.032 5.139 6.025 5.153 6.025H6.917C6.959 6.025 6.98 6.039 6.98 6.067L7.946 10.393C7.96 10.393 7.967 10.393 7.967 10.393V10.414C7.967 10.456 7.946 10.477 7.904 10.477ZM11.6 6.088L10.823 10.435C10.795 10.463 10.774 10.477 10.76 10.477H9.668C9.626 10.477 9.605 10.463 9.605 10.435L8.807 6.109C8.807 6.081 8.807 6.06 8.807 6.046C8.821 6.032 8.842 6.025 8.87 6.025H11.537C11.565 6.025 11.579 6.032 11.579 6.046L11.6 6.088ZM15.317 6.109L14.078 10.435C14.078 10.463 14.057 10.477 14.015 10.477H12.524C12.496 10.477 12.475 10.47 12.461 10.456V10.435C12.447 10.421 12.447 10.407 12.461 10.393L13.427 6.067C13.427 6.039 13.448 6.025 13.49 6.025H15.254C15.282 6.025 15.296 6.032 15.296 6.046C15.31 6.06 15.317 6.081 15.317 6.109Z" fill="black"/>
</svg>
